o outside01-lib_0
v 0.00724 15.6533 7.80149
v 11.6672 15.6533 3.18149
v 0.00724 15.6533 3.18149
v 17.4172 15.6533 7.80149
v 17.4172 15.6533 0.00148783
v 11.6672 15.6533 0.00148783
v 16.2172 15.0933 7.20149
v 11.6672 15.0933 0.00148791
v 16.218 15.0933 0.00148791
v 11.6672 15.0933 3.18149
v 0.00724 15.0933 3.18149
v 0.00724 15.0933 7.20149
v -11.6528 15.6533 3.18149
v -11.6528 15.6533 0.00148783
v -17.4028 15.6533 0.00148783
v -17.4028 15.6533 7.80149
v -11.6528 15.0933 3.18149
v -16.2028 15.0933 7.20149
v -16.2028 15.0933 0.00148791
v -11.6528 15.0933 0.00148791
v 11.6672 15.6533 -3.17851
v 17.4172 15.6533 -7.79851
v 0.00724 15.6533 -7.79851
v 0.00724 15.6533 -3.17851
v 0.00724 15.0933 -3.17851
v 0.00724 15.0933 -7.19851
v 11.6672 15.0933 -3.17851
v 16.2172 15.0933 -7.19851
v -11.6528 15.6533 -3.17851
v -17.4028 15.6533 -7.79851
v -11.6528 15.0933 -3.17851
v -16.2028 15.0933 -7.19851
v 17.4172 15.6533 7.80149
v 0.00724 15.6533 7.80149
v 0.00724 -0.906687 7.80149
v 17.4172 -0.906687 7.80149
v 17.4172 15.6533 0.00148783
v 17.4172 -0.906687 7.80149
v 17.4172 -0.906688 0.00149014
v 17.4172 15.6533 7.80149
v -17.4028 15.6533 7.80149
v -17.4028 -0.906687 7.80149
v -17.4028 15.6533 0.00148783
v -17.4028 -0.906688 0.00149014
v -17.4028 -0.906687 7.80149
v -17.4028 15.6533 7.80149
v 17.4172 15.6533 -7.79851
v 0.00724 -0.906689 -7.79851
v 0.00724 15.6533 -7.79851
v 17.4172 -0.906689 -7.79851
v 17.4172 -0.906689 -7.79851
v 17.4172 15.6533 -7.79851
v -17.4028 15.6533 -7.79851
v -17.4028 -0.906689 -7.79851
v -17.4028 -0.906689 -7.79851
v -17.4028 15.6533 -7.79851
vt 0.5 -1.9375
vt -3.14375 -0.49375
vt 0.5 -0.49375
vt -4.94063 -1.9375
vt -4.94063 0.5
vt -3.14375 0.5
vt -4.56563 -1.75
vt -3.14375 0.5
vt -4.56588 0.5
vt -3.14375 -0.49375
vt 0.5 -0.49375
vt 0.5 -1.75
vt 4.14375 -0.49375
vt 4.14375 0.5
vt 5.94063 0.5
vt 5.94063 -1.9375
vt 4.14375 -0.49375
vt 5.56563 -1.75
vt 5.56563 0.5
vt 4.14375 0.5
vt -3.14375 1.49375
vt -4.94063 2.9375
vt 0.5 2.9375
vt 0.5 1.49375
vt 0.5 1.49375
vt 0.5 2.75
vt -3.14375 1.49375
vt -4.56563 2.75
vt 4.14375 1.49375
vt 5.94063 2.9375
vt 4.14375 1.49375
vt 5.56563 2.75
vt -4.94063 -5.98333
vt 0.5 -5.98333
vt 0.5 0.916667
vt -4.94063 0.916667
vt 0.5 -5.98333
vt 2.9375 0.916667
vt 0.5 0.916667
vt 2.9375 -5.98333
vt 5.94063 -5.98333
vt 5.94063 0.916667
vt 0.5 -5.98333
vt 0.5 0.916667
vt 2.9375 0.916667
vt 2.9375 -5.98333
vt -4.94063 -5.98333
vt 0.5 0.916667
vt 0.5 -5.98333
vt -4.94063 0.916667
vt -1.9375 0.916667
vt -1.9375 -5.98333
vt 5.94063 -5.98333
vt 5.94063 0.916667
vt -1.9375 0.916667
vt -1.9375 -5.98333
vn 0 1 -1.39626e-07
vn 0 1 -1.39626e-07
vn 0 1 -1.39626e-07
vn 0 1 -1.39626e-07
vn 0 1 -1.39626e-07
vn 0 1 -1.39626e-07
vn 0 -1 1.39626e-07
vn 0 -1 1.39626e-07
vn 0 -1 1.39626e-07
vn 0 -1 1.39626e-07
vn 0 -1 1.39626e-07
vn 0 -1 1.39626e-07
vn 0 1 -1.39626e-07
vn 0 1 -1.39626e-07
vn 0 1 -1.39626e-07
vn 0 1 -1.39626e-07
vn 0 -1 1.39626e-07
vn 0 -1 1.39626e-07
vn 0 -1 1.39626e-07
vn 0 -1 1.39626e-07
vn 0 1 -1.39626e-07
vn 0 1 -1.39626e-07
vn 0 1 -1.39626e-07
vn 0 1 -1.39626e-07
vn 0 -1 1.39626e-07
vn 0 -1 1.39626e-07
vn 0 -1 1.39626e-07
vn 0 -1 1.39626e-07
vn 0 1 -1.39626e-07
vn 0 1 -1.39626e-07
vn 0 -1 1.39626e-07
vn 0 -1 1.39626e-07
vn 0 1.39626e-07 1
vn 0 1.39626e-07 1
vn 0 1.39626e-07 1
vn 0 1.39626e-07 1
vn 1 0 0
vn 1 0 0
vn 1 0 0
vn 1 0 0
vn 0 1.39626e-07 1
vn 0 1.39626e-07 1
vn -1 0 0
vn -1 0 0
vn -1 0 0
vn -1 0 0
vn -0 -1.39626e-07 -1
vn 0 -1.39626e-07 -1
vn 0 -1.39626e-07 -1
vn 0 -1.39626e-07 -1
vn 1 0 0
vn 1 0 0
vn 0 -1.39626e-07 -1
vn 0 -1.39626e-07 -1
vn -1 0 0
vn -1 0 0
f 1/1/1 2/2/2 3/3/3
f 4/4/4 2/2/2 1/1/1
f 2/2/2 5/5/5 6/6/6
f 4/4/4 5/5/5 2/2/2
f 7/7/7 8/8/8 9/9/9
f 7/7/7 10/10/10 8/8/8
f 7/7/7 11/11/11 10/10/10
f 12/12/12 11/11/11 7/7/7
f 13/13/13 14/14/14 15/15/15
f 16/16/16 13/13/13 15/15/15
f 1/1/1 3/3/3 13/13/13
f 16/16/16 1/1/1 13/13/13
f 12/12/12 17/17/17 11/11/11
f 18/18/18 17/17/17 12/12/12
f 17/17/17 19/19/19 20/20/20
f 18/18/18 19/19/19 17/17/17
f 5/5/5 21/21/21 6/6/6
f 5/5/5 22/22/22 21/21/21
f 21/21/21 23/23/23 24/24/24
f 21/21/21 22/22/22 23/23/23
f 25/25/25 26/26/26 27/27/27
f 27/27/27 26/26/26 28/28/28
f 8/8/8 27/27/27 9/9/9
f 9/9/9 27/27/27 28/28/28
f 24/24/24 23/23/23 29/29/29
f 29/29/29 23/23/23 30/30/30
f 14/14/14 29/29/29 15/15/15
f 15/15/15 29/29/29 30/30/30
f 19/19/19 31/31/31 20/20/20
f 19/19/19 32/32/32 31/31/31
f 31/31/31 26/26/26 25/25/25
f 31/31/31 32/32/32 26/26/26
f 33/33/33 34/34/34 35/35/35
f 33/33/33 35/35/35 36/36/36
f 37/37/37 38/38/38 39/39/39
f 40/40/40 38/38/38 37/37/37
f 34/34/34 41/41/41 35/35/35
f 35/35/35 41/41/41 42/42/42
f 43/43/43 44/44/44 45/45/45
f 46/46/46 43/43/43 45/45/45
f 47/47/47 48/48/48 49/49/49
f 50/50/50 48/48/48 47/47/47
f 37/37/37 39/39/39 51/51/51
f 52/52/52 37/37/37 51/51/51
f 48/48/48 53/53/53 49/49/49
f 48/48/48 54/54/54 53/53/53
f 43/43/43 55/55/55 44/44/44
f 56/56/56 55/55/55 43/43/43
