o puillar_floor_corner-lib_0
v 11.7112 2.69331 -2.06451
v 10.8032 2.69331 -2.39451
v 10.8032 2.69331 -2.06451
v 11.7112 2.69331 -3.30251
v 10.4732 2.69331 -3.30251
v 10.4732 2.69331 -2.39451
v 10.4732 2.69331 3.30549
v 10.8032 2.69331 2.39749
v 10.4732 2.69331 2.39749
v 11.7112 2.69331 3.30549
v 11.7112 2.69331 2.06749
v 10.8032 2.69331 2.06749
v -10.4588 2.69331 -2.39451
v -10.4588 2.69331 -3.30251
v -10.7888 2.69331 -2.39451
v -11.6968 2.69331 -3.30251
v -10.7888 2.69331 -2.06451
v -11.6968 2.69331 -2.06451
v -10.7888 2.69331 2.39749
v -10.7888 2.69331 2.06749
v -11.6968 2.69331 2.06749
v -11.6968 2.69331 3.30549
v -10.4588 2.69331 3.30549
v -10.4588 2.69331 2.39749
v 11.5872 0.0933123 2.3848
v 11.3939 2.33331 2.19149
v 11.5872 2.33331 2.3848
v 11.3939 0.0933123 2.19149
v 11.1206 2.33331 2.19149
v 10.9272 0.0933123 2.3848
v 10.9272 2.33331 2.3848
v 11.1206 0.0933123 2.19149
v 11.3939 0.0933123 2.19149
v 11.1206 0.0933123 2.19149
v 11.3939 2.33331 2.19149
v 11.1206 2.33331 2.19149
v 11.5872 2.33331 2.98818
v 11.3939 2.33331 3.18149
v 11.5872 0.0933124 2.98818
v 11.3939 0.0933124 3.18149
v 11.5872 2.33331 2.98818
v 11.5872 0.0933123 2.3848
v 11.5872 2.33331 2.3848
v 11.5872 0.0933124 2.98818
v 10.9272 2.33331 2.52149
v 10.9272 0.0933123 2.3848
v 10.9272 0.0933124 2.52149
v 10.9272 2.33331 2.3848
v 10.7906 2.33331 2.52149
v 10.5972 0.0933124 2.7148
v 10.5972 2.33331 2.7148
v 10.7906 0.0933124 2.52149
v 10.7906 2.33331 3.18149
v 10.5972 2.33331 2.98818
v 10.5972 0.0933124 2.98818
v 10.7906 0.0933124 3.18149
v 11.3939 2.33331 3.18149
v 10.7906 0.0933124 3.18149
v 11.3939 0.0933124 3.18149
v 10.7906 2.33331 3.18149
v 10.5972 2.33331 2.7148
v 10.5972 0.0933124 2.7148
v 10.5972 2.33331 2.98818
v 10.5972 0.0933124 2.98818
v 10.9272 0.0933124 2.52149
v 10.7906 2.33331 2.52149
v 10.9272 2.33331 2.52149
v 10.7906 0.0933124 2.52149
v -11.3794 2.33331 2.19149
v -11.5728 0.0933123 2.3848
v -11.5728 2.33331 2.3848
v -11.3794 0.0933123 2.19149
v -10.9128 0.0933123 2.3848
v -11.1061 2.33331 2.19149
v -10.9128 2.33331 2.3848
v -11.1061 0.0933123 2.19149
v -11.1061 0.0933123 2.19149
v -11.3794 0.0933123 2.19149
v -11.3794 2.33331 2.19149
v -11.1061 2.33331 2.19149
v -11.3794 2.33331 3.18149
v -11.5728 2.33331 2.98818
v -11.5728 0.0933124 2.98818
v -11.3794 0.0933124 3.18149
v -11.5728 2.33331 2.3848
v -11.5728 0.0933123 2.3848
v -11.5728 2.33331 2.98818
v -11.5728 0.0933124 2.98818
v -10.9128 2.33331 2.52149
v -10.9128 0.0933124 2.52149
v -10.9128 0.0933123 2.3848
v -10.9128 2.33331 2.3848
v -10.5828 0.0933124 2.7148
v -10.7761 2.33331 2.52149
v -10.5828 2.33331 2.7148
v -10.7761 0.0933124 2.52149
v -10.5828 2.33331 2.98818
v -10.7761 2.33331 3.18149
v -10.5828 0.0933124 2.98818
v -10.7761 0.0933124 3.18149
v -10.7761 0.0933124 3.18149
v -11.3794 2.33331 3.18149
v -11.3794 0.0933124 3.18149
v -10.7761 2.33331 3.18149
v -10.5828 2.33331 2.98818
v -10.5828 0.0933124 2.7148
v -10.5828 2.33331 2.7148
v -10.5828 0.0933124 2.98818
v -10.7761 2.33331 2.52149
v -10.9128 0.0933124 2.52149
v -10.9128 2.33331 2.52149
v -10.7761 0.0933124 2.52149
v 11.5872 2.33331 -2.38182
v 11.3939 2.33331 -2.18851
v 11.5872 0.0933117 -2.38182
v 11.3939 0.0933117 -2.18851
v 11.1206 2.33331 -2.18851
v 10.9272 2.33331 -2.38182
v 10.9272 0.0933117 -2.38182
v 11.1206 0.0933117 -2.18851
v 11.3939 2.33331 -2.18851
v 11.1206 0.0933117 -2.18851
v 11.3939 0.0933117 -2.18851
v 11.1206 2.33331 -2.18851
v 11.5872 0.0933116 -2.9852
v 11.3939 2.33331 -3.17851
v 11.5872 2.33331 -2.9852
v 11.3939 0.0933116 -3.17851
v 11.5872 2.33331 -2.38182
v 11.5872 0.0933117 -2.38182
v 11.5872 2.33331 -2.9852
v 11.5872 0.0933116 -2.9852
v 10.9272 2.33331 -2.51851
v 10.9272 0.0933117 -2.51851
v 10.9272 0.0933117 -2.38182
v 10.9272 2.33331 -2.38182
v 10.7906 2.33331 -2.51851
v 10.5972 2.33331 -2.71182
v 10.5972 0.0933116 -2.71182
v 10.7906 0.0933117 -2.51851
v 10.7906 2.33331 -3.17851
v 10.5972 0.0933116 -2.9852
v 10.5972 2.33331 -2.9852
v 10.7906 0.0933116 -3.17851
v 11.3939 0.0933116 -3.17851
v 10.7906 0.0933116 -3.17851
v 11.3939 2.33331 -3.17851
v 10.7906 2.33331 -3.17851
v 10.5972 2.33331 -2.9852
v 10.5972 0.0933116 -2.71182
v 10.5972 2.33331 -2.71182
v 10.5972 0.0933116 -2.9852
v 10.9272 2.33331 -2.51851
v 10.7906 2.33331 -2.51851
v 10.9272 0.0933117 -2.51851
v 10.7906 0.0933117 -2.51851
v -11.3794 2.33331 -2.18851
v -11.5728 2.33331 -2.38182
v -11.5728 0.0933117 -2.38182
v -11.3794 0.0933117 -2.18851
v -10.9128 2.33331 -2.38182
v -11.1061 2.33331 -2.18851
v -10.9128 0.0933117 -2.38182
v -11.1061 0.0933117 -2.18851
v -11.1061 0.0933117 -2.18851
v -11.3794 2.33331 -2.18851
v -11.3794 0.0933117 -2.18851
v -11.1061 2.33331 -2.18851
v -11.3794 2.33331 -3.17851
v -11.5728 0.0933116 -2.9852
v -11.5728 2.33331 -2.9852
v -11.3794 0.0933116 -3.17851
v -11.5728 2.33331 -2.9852
v -11.5728 0.0933117 -2.38182
v -11.5728 2.33331 -2.38182
v -11.5728 0.0933116 -2.9852
v -10.9128 2.33331 -2.51851
v -10.9128 0.0933117 -2.38182
v -10.9128 0.0933117 -2.51851
v -10.9128 2.33331 -2.38182
v -10.5828 2.33331 -2.71182
v -10.7761 2.33331 -2.51851
v -10.5828 0.0933116 -2.71182
v -10.7761 0.0933117 -2.51851
v -10.5828 0.0933116 -2.9852
v -10.7761 2.33331 -3.17851
v -10.5828 2.33331 -2.9852
v -10.7761 0.0933116 -3.17851
v -10.7761 0.0933116 -3.17851
v -11.3794 0.0933116 -3.17851
v -11.3794 2.33331 -3.17851
v -10.7761 2.33331 -3.17851
v -10.5828 2.33331 -2.71182
v -10.5828 0.0933116 -2.71182
v -10.5828 2.33331 -2.9852
v -10.5828 0.0933116 -2.9852
v -10.7761 2.33331 -2.51851
v -10.9128 2.33331 -2.51851
v -10.9128 0.0933117 -2.51851
v -10.7761 0.0933117 -2.51851
vt 0 1
vt 0 1
vt 0 1
vt 0 1
vt 0 1
vt 0 1
vt 0 1
vt 0 1
vt 0 1
vt 0 1
vt 0 1
vt 0 1
vt 0 1
vt 0 1
vt 0 1
vt 0 1
vt 0 1
vt 0 1
vt 0 1
vt 0 1
vt 0 1
vt 0 1
vt 0 1
vt 0 1
vt 0.087115 1
vt 0.162885 0
vt 0.087115 0
vt 0.162885 1
vt 0.240908 0
vt 0.329653 1
vt 0.329653 0
vt 0.240908 1
vt 0.162885 1
vt 0.240908 1
vt 0.162885 0
vt 0.240908 0
vt 0.969692 0
vt 0.88 0
vt 0.969692 1
vt 0.88 1
vt -0.160908 0
vt 0.087115 1
vt 0.087115 0
vt -0.160908 1
vt 0.375 0
vt 0.329653 1
vt 0.375 1
vt 0.329653 0
vt 0.420347 0
vt 0.509092 1
vt 0.509092 0
vt 0.420347 1
vt 0.662885 0
vt 0.587115 0
vt 0.587115 1
vt 0.662885 1
vt 0.740908 1
vt 0.662885 1
vt 0.88 1
vt 0.662885 0
vt 0.509092 0
vt 0.509092 1
vt 0.587115 0
vt 0.587115 1
vt 0.375 1
vt 0.420347 0
vt 0.375 0
vt 0.420347 1
vt 0.162885 0
vt 0.087115 1
vt 0.087115 0
vt 0.162885 1
vt 0.329653 1
vt 0.240908 0
vt 0.329653 0
vt 0.240908 1
vt 0.240908 1
vt 0.162885 1
vt 0.162885 0
vt 0.240908 0
vt 0.88 0
vt 0.969692 0
vt 0.969692 1
vt 0.88 1
vt 0.087115 0
vt 0.087115 1
vt -0.160908 0
vt -0.160908 1
vt 0.375 0
vt 0.375 1
vt 0.329653 1
vt 0.329653 0
vt 0.509092 1
vt 0.420347 0
vt 0.509092 0
vt 0.420347 1
vt 0.587115 0
vt 0.662885 0
vt 0.587115 1
vt 0.662885 1
vt 0.662885 1
vt 0.740908 1
vt 0.88 1
vt 0.662885 0
vt 0.587115 0
vt 0.509092 1
vt 0.509092 0
vt 0.587115 1
vt 0.420347 0
vt 0.375 1
vt 0.375 0
vt 0.420347 1
vt 0.087115 0
vt 0.162885 0
vt 0.087115 1
vt 0.162885 1
vt 0.240908 0
vt 0.329653 0
vt 0.329653 1
vt 0.240908 1
vt 0.162885 0
vt 0.240908 1
vt 0.162885 1
vt 0.240908 0
vt 0.969692 1
vt 0.88 0
vt 0.969692 0
vt 0.88 1
vt 0.087115 0
vt 0.087115 1
vt -0.160908 0
vt -0.160908 1
vt 0.375 0
vt 0.375 1
vt 0.329653 1
vt 0.329653 0
vt 0.420347 0
vt 0.509092 0
vt 0.509092 1
vt 0.420347 1
vt 0.662885 0
vt 0.587115 1
vt 0.587115 0
vt 0.662885 1
vt 0.88 1
vt 0.662885 1
vt 0.740908 1
vt 0.662885 0
vt 0.587115 0
vt 0.509092 1
vt 0.509092 0
vt 0.587115 1
vt 0.375 0
vt 0.420347 0
vt 0.375 1
vt 0.420347 1
vt 0.162885 0
vt 0.087115 0
vt 0.087115 1
vt 0.162885 1
vt 0.329653 0
vt 0.240908 0
vt 0.329653 1
vt 0.240908 1
vt 0.240908 1
vt 0.162885 0
vt 0.162885 1
vt 0.240908 0
vt 0.88 0
vt 0.969692 1
vt 0.969692 0
vt 0.88 1
vt -0.160908 -0.00281298
vt 0.087115 1
vt 0.087115 0
vt -0.160908 1
vt 0.375 0
vt 0.329653 1
vt 0.375 1
vt 0.329653 0
vt 0.509092 0
vt 0.420347 0
vt 0.509092 1
vt 0.420347 1
vt 0.587115 1
vt 0.662885 0
vt 0.587115 0
vt 0.662885 1
vt 0.662885 1
vt 0.88 1
vt 0.740908 1
vt 0.662885 0
vt 0.509092 0
vt 0.509092 1
vt 0.587115 0
vt 0.587115 1
vt 0.420347 0
vt 0.375 0
vt 0.375 1
vt 0.420347 1
vn 0 1 -1.39626e-07
vn 0 1 -1.39626e-07
vn 0 1 -1.39626e-07
vn 0 1 -1.39626e-07
vn 0 1 -1.39626e-07
vn 0 1 -1.39626e-07
vn 0 1 -1.39626e-07
vn 0 1 -1.39626e-07
vn 0 1 -1.39626e-07
vn 0 1 -1.39626e-07
vn 0 1 -1.39626e-07
vn 0 1 -1.39626e-07
vn 0 1 -1.39626e-07
vn 0 1 -1.39626e-07
vn 0 1 -1.39626e-07
vn 0 1 -1.39626e-07
vn 0 1 -1.39626e-07
vn 0 1 -1.39626e-07
vn 0 1 -1.39626e-07
vn 0 1 -1.39626e-07
vn 0 1 -1.39626e-07
vn 0 1 -1.39626e-07
vn 0 1 -1.39626e-07
vn 0 1 -1.39626e-07
vn 0.707107 -9.87304e-08 -0.707106
vn 0.707107 -9.87304e-08 -0.707106
vn 0.707108 -9.87304e-08 -0.707106
vn 0.707107 -9.87305e-08 -0.707107
vn -0.707107 -9.87304e-08 -0.707106
vn -0.707107 -9.87304e-08 -0.707106
vn -0.707108 -9.87304e-08 -0.707106
vn -0.707107 -9.87305e-08 -0.707107
vn 0 -1.39626e-07 -1
vn 0 -1.39626e-07 -1
vn 0 -1.39626e-07 -1
vn 0 -1.39626e-07 -1
vn 0.707105 9.87307e-08 0.707108
vn 0.707106 9.87306e-08 0.707108
vn 0.707106 9.87306e-08 0.707108
vn 0.707106 9.87306e-08 0.707108
vn 1 0 0
vn 1 0 0
vn 1 0 0
vn 1 0 0
vn -1 0 0
vn -1 0 0
vn -1 0 0
vn -1 0 0
vn -0.707107 -9.87304e-08 -0.707106
vn -0.707107 -9.87304e-08 -0.707106
vn -0.707108 -9.87304e-08 -0.707106
vn -0.707107 -9.87305e-08 -0.707107
vn -0.707106 9.87306e-08 0.707108
vn -0.707105 9.87307e-08 0.707108
vn -0.707106 9.87306e-08 0.707108
vn -0.707106 9.87306e-08 0.707108
vn 0 1.39626e-07 1
vn 0 1.39626e-07 1
vn 0 1.39626e-07 1
vn 0 1.39626e-07 1
vn -1 0 0
vn -1 0 0
vn -1 0 0
vn -1 0 0
vn 0 -1.39626e-07 -1
vn 0 -1.39626e-07 -1
vn 0 -1.39626e-07 -1
vn 0 -1.39626e-07 -1
vn -0.707107 -9.87304e-08 -0.707106
vn -0.707107 -9.87304e-08 -0.707106
vn -0.707108 -9.87304e-08 -0.707106
vn -0.707107 -9.87305e-08 -0.707107
vn 0.707107 -9.87304e-08 -0.707106
vn 0.707107 -9.87304e-08 -0.707106
vn 0.707108 -9.87304e-08 -0.707106
vn 0.707107 -9.87305e-08 -0.707107
vn 0 -1.39626e-07 -1
vn 0 -1.39626e-07 -1
vn 0 -1.39626e-07 -1
vn 0 -1.39626e-07 -1
vn -0.707106 9.87306e-08 0.707108
vn -0.707105 9.87307e-08 0.707108
vn -0.707106 9.87306e-08 0.707108
vn -0.707106 9.87306e-08 0.707108
vn -1 0 0
vn -1 0 0
vn -1 0 0
vn -1 0 0
vn 1 0 0
vn 1 0 0
vn 1 0 0
vn 1 0 0
vn 0.707107 -9.87304e-08 -0.707106
vn 0.707107 -9.87304e-08 -0.707106
vn 0.707108 -9.87304e-08 -0.707106
vn 0.707107 -9.87305e-08 -0.707107
vn 0.707105 9.87307e-08 0.707108
vn 0.707106 9.87306e-08 0.707108
vn 0.707106 9.87306e-08 0.707108
vn 0.707106 9.87306e-08 0.707108
vn 0 1.39626e-07 1
vn 0 1.39626e-07 1
vn 0 1.39626e-07 1
vn 0 1.39626e-07 1
vn 1 0 0
vn 1 0 0
vn 1 0 0
vn 1 0 0
vn 0 -1.39626e-07 -1
vn 0 -1.39626e-07 -1
vn 0 -1.39626e-07 -1
vn 0 -1.39626e-07 -1
vn 0.707108 9.87304e-08 0.707106
vn 0.707107 9.87304e-08 0.707106
vn 0.707107 9.87304e-08 0.707106
vn 0.707107 9.87305e-08 0.707107
vn -0.707107 9.87304e-08 0.707106
vn -0.707108 9.87304e-08 0.707106
vn -0.707107 9.87304e-08 0.707106
vn -0.707107 9.87305e-08 0.707107
vn 0 1.39626e-07 1
vn 0 1.39626e-07 1
vn 0 1.39626e-07 1
vn 0 1.39626e-07 1
vn 0.707106 -9.87306e-08 -0.707108
vn 0.707106 -9.87306e-08 -0.707108
vn 0.707105 -9.87307e-08 -0.707108
vn 0.707106 -9.87306e-08 -0.707108
vn 1 0 0
vn 1 0 0
vn 1 0 0
vn 1 0 0
vn -1 0 0
vn -1 0 0
vn -1 0 0
vn -1 0 0
vn -0.707107 9.87304e-08 0.707106
vn -0.707108 9.87304e-08 0.707106
vn -0.707107 9.87304e-08 0.707106
vn -0.707107 9.87305e-08 0.707107
vn -0.707106 -9.87306e-08 -0.707108
vn -0.707106 -9.87306e-08 -0.707108
vn -0.707105 -9.87307e-08 -0.707108
vn -0.707106 -9.87306e-08 -0.707108
vn 0 -1.39626e-07 -1
vn 0 -1.39626e-07 -1
vn 0 -1.39626e-07 -1
vn 0 -1.39626e-07 -1
vn -1 0 0
vn -1 0 0
vn -1 0 0
vn -1 0 0
vn 0 1.39626e-07 1
vn 0 1.39626e-07 1
vn 0 1.39626e-07 1
vn 0 1.39626e-07 1
vn -0.707107 9.87304e-08 0.707106
vn -0.707108 9.87304e-08 0.707106
vn -0.707107 9.87304e-08 0.707106
vn -0.707107 9.87305e-08 0.707107
vn 0.707108 9.87304e-08 0.707106
vn 0.707107 9.87304e-08 0.707106
vn 0.707107 9.87304e-08 0.707106
vn 0.707107 9.87305e-08 0.707107
vn 0 1.39626e-07 1
vn 0 1.39626e-07 1
vn 0 1.39626e-07 1
vn 0 1.39626e-07 1
vn -0.707106 -9.87306e-08 -0.707108
vn -0.707106 -9.87306e-08 -0.707108
vn -0.707105 -9.87307e-08 -0.707108
vn -0.707106 -9.87306e-08 -0.707108
vn -1 0 0
vn -1 0 0
vn -1 0 0
vn -1 0 0
vn 1 0 0
vn 1 0 0
vn 1 0 0
vn 1 0 0
vn 0.707108 9.87304e-08 0.707106
vn 0.707107 9.87304e-08 0.707106
vn 0.707107 9.87304e-08 0.707106
vn 0.707107 9.87305e-08 0.707107
vn 0.707106 -9.87306e-08 -0.707108
vn 0.707106 -9.87306e-08 -0.707108
vn 0.707105 -9.87307e-08 -0.707108
vn 0.707106 -9.87306e-08 -0.707108
vn 0 -1.39626e-07 -1
vn 0 -1.39626e-07 -1
vn 0 -1.39626e-07 -1
vn 0 -1.39626e-07 -1
vn 1 0 0
vn 1 0 0
vn 1 0 0
vn 1 0 0
vn 0 1.39626e-07 1
vn 0 1.39626e-07 1
vn 0 1.39626e-07 1
vn 0 1.39626e-07 1
f 1/1/1 2/2/2 3/3/3
f 1/1/1 4/4/4 2/2/2
f 2/2/2 5/5/5 6/6/6
f 2/2/2 4/4/4 5/5/5
f 7/7/7 8/8/8 9/9/9
f 10/10/10 8/8/8 7/7/7
f 8/8/8 11/11/11 12/12/12
f 10/10/10 11/11/11 8/8/8
f 13/13/13 14/14/14 15/15/15
f 15/15/15 14/14/14 16/16/16
f 17/17/17 15/15/15 18/18/18
f 18/18/18 15/15/15 16/16/16
f 19/19/19 20/20/20 21/21/21
f 22/22/22 19/19/19 21/21/21
f 23/23/23 24/24/24 19/19/19
f 23/23/23 19/19/19 22/22/22
f 25/25/25 26/26/26 27/27/27
f 25/25/25 28/28/28 26/26/26
f 29/29/29 30/30/30 31/31/31
f 32/32/32 30/30/30 29/29/29
f 33/33/33 34/34/34 35/35/35
f 35/35/35 34/34/34 36/36/36
f 37/37/37 38/38/38 39/39/39
f 39/39/39 38/38/38 40/40/40
f 41/41/41 42/42/42 43/43/43
f 41/41/41 44/44/44 42/42/42
f 45/45/45 46/46/46 47/47/47
f 48/48/48 46/46/46 45/45/45
f 49/49/49 50/50/50 51/51/51
f 52/52/52 50/50/50 49/49/49
f 53/53/53 54/54/54 55/55/55
f 53/53/53 55/55/55 56/56/56
f 57/57/57 58/58/58 59/59/59
f 57/57/57 60/60/60 58/58/58
f 61/61/61 62/62/62 63/63/63
f 63/63/63 62/62/62 64/64/64
f 65/65/65 66/66/66 67/67/67
f 65/65/65 68/68/68 66/66/66
f 69/69/69 70/70/70 71/71/71
f 72/72/72 70/70/70 69/69/69
f 73/73/73 74/74/74 75/75/75
f 73/73/73 76/76/76 74/74/74
f 77/77/77 78/78/78 79/79/79
f 77/77/77 79/79/79 80/80/80
f 81/81/81 82/82/82 83/83/83
f 81/81/81 83/83/83 84/84/84
f 85/85/85 86/86/86 87/87/87
f 87/87/87 86/86/86 88/88/88
f 89/89/89 90/90/90 91/91/91
f 89/89/89 91/91/91 92/92/92
f 93/93/93 94/94/94 95/95/95
f 93/93/93 96/96/96 94/94/94
f 97/97/97 98/98/98 99/99/99
f 99/99/99 98/98/98 100/100/100
f 101/101/101 102/102/102 103/103/103
f 104/104/104 102/102/102 101/101/101
f 105/105/105 106/106/106 107/107/107
f 105/105/105 108/108/108 106/106/106
f 109/109/109 110/110/110 111/111/111
f 112/112/112 110/110/110 109/109/109
f 113/113/113 114/114/114 115/115/115
f 115/115/115 114/114/114 116/116/116
f 117/117/117 118/118/118 119/119/119
f 117/117/117 119/119/119 120/120/120
f 121/121/121 122/122/122 123/123/123
f 121/121/121 124/124/124 122/122/122
f 125/125/125 126/126/126 127/127/127
f 125/125/125 128/128/128 126/126/126
f 129/129/129 130/130/130 131/131/131
f 131/131/131 130/130/130 132/132/132
f 133/133/133 134/134/134 135/135/135
f 133/133/133 135/135/135 136/136/136
f 137/137/137 138/138/138 139/139/139
f 137/137/137 139/139/139 140/140/140
f 141/141/141 142/142/142 143/143/143
f 144/144/144 142/142/142 141/141/141
f 145/145/145 146/146/146 147/147/147
f 147/147/147 146/146/146 148/148/148
f 149/149/149 150/150/150 151/151/151
f 149/149/149 152/152/152 150/150/150
f 153/153/153 154/154/154 155/155/155
f 155/155/155 154/154/154 156/156/156
f 157/157/157 158/158/158 159/159/159
f 157/157/157 159/159/159 160/160/160
f 161/161/161 162/162/162 163/163/163
f 163/163/163 162/162/162 164/164/164
f 165/165/165 166/166/166 167/167/167
f 168/168/168 166/166/166 165/165/165
f 169/169/169 170/170/170 171/171/171
f 172/172/172 170/170/170 169/169/169
f 173/173/173 174/174/174 175/175/175
f 173/173/173 176/176/176 174/174/174
f 177/177/177 178/178/178 179/179/179
f 180/180/180 178/178/178 177/177/177
f 181/181/181 182/182/182 183/183/183
f 183/183/183 182/182/182 184/184/184
f 185/185/185 186/186/186 187/187/187
f 185/185/185 188/188/188 186/186/186
f 189/189/189 190/190/190 191/191/191
f 189/189/189 191/191/191 192/192/192
f 193/193/193 194/194/194 195/195/195
f 195/195/195 194/194/194 196/196/196
f 197/197/197 198/198/198 199/199/199
f 197/197/197 199/199/199 200/200/200
