o relief-lib_0
v 10.9272 13.9533 0.00148806
v 10.9272 13.7333 0.501488
v 10.9272 13.9533 0.651488
v 10.9272 13.9533 -0.648512
v 10.9272 13.7333 -0.498512
v 10.9272 13.6692 1.19266
v 10.9272 13.6692 -1.18968
v 10.9272 13.5483 1.46981
v 10.9272 13.5483 -1.46684
v 10.9272 13.2933 1.78149
v 10.9272 13.2933 -1.77851
v 10.9272 12.4033 1.78149
v 10.9272 12.4033 1.33149
v 10.9272 12.4033 -1.77851
v 10.9272 12.4033 -1.27851
v 10.9272 11.0533 1.33149
v 10.9272 11.0533 0.00148847
v 10.9272 11.0533 -1.27851
vt 0.5 0.04
vt 0.640449 0.113333
vt 0.682584 0.04
vt 0.317416 0.04
vt 0.359551 0.113333
vt 0.834598 0.13471
vt 0.165402 0.13471
vt 0.912451 0.175008
vt 0.087549 0.175008
vt 1 0.25
vt 0 0.25
vt 1 0.55
vt 0.879551 0.55
vt 0 0.55
vt 0.100449 0.55
vt 0.879551 1
vt 0.5 1
vt 0.100449 1
vn -1 -2e-06 2.79252e-13
vn -1 3e-06 -4.18878e-13
vn -1 -3e-06 4.18878e-13
vn -1 0 0
vn -1 5e-06 -6.9813e-13
vn -1 4e-06 -5.58504e-13
vn -1 -4e-06 5.58504e-13
vn -1 -1e-06 1.39626e-13
vn -1 -1e-06 1.39626e-13
vn -1 3e-06 -4.18878e-13
vn -1 -1e-06 1.39626e-13
vn -1 -4e-06 5.58504e-13
vn -1 -2e-06 2.79252e-13
vn -1 0 0
vn -1 0 0
vn -1 1e-06 -1.39626e-13
vn -1 1e-06 -1.39626e-13
vn -1 0 0
f 1/1/1 2/2/2 3/3/3
f 4/4/4 2/2/2 1/1/1
f 4/4/4 5/5/5 2/2/2
f 5/5/5 6/6/6 2/2/2
f 5/5/5 7/7/7 6/6/6
f 7/7/7 8/8/8 6/6/6
f 7/7/7 9/9/9 8/8/8
f 9/9/9 10/10/10 8/8/8
f 9/9/9 11/11/11 10/10/10
f 11/11/11 12/12/12 10/10/10
f 11/11/11 13/13/13 12/12/12
f 11/11/11 14/14/14 15/15/15
f 11/11/11 15/15/15 13/13/13
f 15/15/15 16/16/16 13/13/13
f 15/15/15 17/17/17 16/16/16
f 15/15/15 18/18/18 17/17/17
