o walls-lib_1
v 5.28724 1.52331 7.22149
v 3.47724 1.47331 7.22149
v 3.52724 1.52331 7.22149
v 5.33724 1.47331 7.22149
v 3.52724 1.52331 7.22149
v 3.47724 3.16335 7.21901
v 3.52724 3.11331 7.22149
v 3.52724 1.52331 7.22149
v 3.47724 1.47331 7.22149
v 3.47724 3.16335 7.21901
vt 0.973118 0.975938
vt 0 1
vt 0.026882 0.975938
vt 1 1
vt 0.026882 0.975938
vt 0 0.186718
vt 0.026882 0.210779
vt 0.026882 0.975938
vt 0 1
vt 0 0.186718
vn 0 -1.39626e-07 -1
vn 0 -1.39626e-07 -1
vn 0 -1.39626e-07 -1
vn 0 -1.39626e-07 -1
vn 0.049554 -1.39454e-07 -0.998771
vn 0.049554 -1.39454e-07 -0.998771
vn 0.049554 -1.39454e-07 -0.998771
vn 0.001467 -0.00146714 -0.999998
vn 0.001467 -0.00146714 -0.999998
vn 0.001467 -0.00146714 -0.999998
f 1/1/1 2/2/2 3/3/3
f 4/4/4 2/2/2 1/1/1
f 5/5/5 6/6/6 7/7/7
f 8/8/8 9/9/9 10/10/10
